<mxfile host="65bd71144e">
    <diagram id="c14xu9Fm3lVLzsutY5Ui" name="第 1 页">
        <mxGraphModel dx="1642" dy="1061" grid="0" gridSize="10" guides="1" tooltips="1" connect="1" arrows="1" fold="1" page="1" pageScale="1" pageWidth="827" pageHeight="1169" math="0" shadow="0">
            <root>
                <mxCell id="0"/>
                <mxCell id="1" parent="0"/>
                <mxCell id="3" value="&lt;b style=&quot;font-size: 13px;&quot;&gt;实体声明&lt;/b&gt;" style="rounded=0;whiteSpace=wrap;html=1;align=center;fillColor=#6d8764;fontColor=#ffffff;strokeColor=#3A5431;fontSize=13;" parent="1" vertex="1">
                    <mxGeometry x="177" y="120" width="120" height="60" as="geometry"/>
                </mxCell>
                <mxCell id="4" value="名字" style="rounded=0;whiteSpace=wrap;html=1;align=center;fontStyle=1;fillColor=#a20025;fontColor=#ffffff;strokeColor=#6F0000;fontSize=13;" parent="1" vertex="1">
                    <mxGeometry x="177" y="434" width="120" height="110" as="geometry"/>
                </mxCell>
                <mxCell id="6" value="名字空间" style="rounded=0;whiteSpace=wrap;html=1;align=center;fontStyle=1;fillColor=#6d8764;fontColor=#ffffff;strokeColor=#3A5431;fontSize=13;" parent="1" vertex="1">
                    <mxGeometry x="377" y="459" width="120" height="60" as="geometry"/>
                </mxCell>
                <mxCell id="8" value="&lt;b style=&quot;font-size: 13px;&quot;&gt;显式声明&lt;br style=&quot;font-size: 13px;&quot;&gt;&lt;/b&gt;源码中引入" style="rounded=0;whiteSpace=wrap;html=1;align=center;fontSize=13;" parent="1" vertex="1">
                    <mxGeometry x="367" y="93" width="120" height="40" as="geometry"/>
                </mxCell>
                <mxCell id="9" value="&lt;b style=&quot;font-size: 13px;&quot;&gt;隐式声明&lt;br style=&quot;font-size: 13px;&quot;&gt;&lt;/b&gt;语言和编译器引入" style="rounded=0;whiteSpace=wrap;html=1;align=center;fontSize=13;" parent="1" vertex="1">
                    <mxGeometry x="372" y="180" width="110" height="40" as="geometry"/>
                </mxCell>
                <mxCell id="10" value="名字可见性" style="rounded=0;whiteSpace=wrap;html=1;align=center;fontStyle=1;fillColor=#6d8764;fontColor=#ffffff;strokeColor=#3A5431;fontSize=13;" parent="1" vertex="1">
                    <mxGeometry x="377" y="699" width="120" height="60" as="geometry"/>
                </mxCell>
                <mxCell id="11" value="程序项声明" style="rounded=0;whiteSpace=wrap;html=1;align=left;spacingLeft=5;fontSize=13;" parent="1" vertex="1">
                    <mxGeometry x="530" y="83" width="230" height="30" as="geometry"/>
                </mxCell>
                <mxCell id="12" value="闭包参数、loop标签&lt;br style=&quot;font-size: 13px;&quot;&gt;模式绑定: while let / if let / for / match" style="rounded=0;whiteSpace=wrap;html=1;align=left;spacingLeft=5;fontSize=13;" parent="1" vertex="1">
                    <mxGeometry x="530" y="113" width="230" height="40" as="geometry"/>
                </mxCell>
                <mxCell id="13" value="泛型参数, 高阶约束, let绑定&lt;br style=&quot;font-size: 13px;&quot;&gt;macro_use, macro_export宏引入" style="rounded=0;whiteSpace=wrap;html=1;align=left;spacingLeft=5;fontSize=13;" parent="1" vertex="1">
                    <mxGeometry x="530" y="153" width="230" height="40" as="geometry"/>
                </mxCell>
                <mxCell id="14" value="内置类型,内置属性,工具属性" style="rounded=0;whiteSpace=wrap;html=1;align=center;fontSize=13;" parent="1" vertex="1">
                    <mxGeometry x="530" y="203" width="230" height="30" as="geometry"/>
                </mxCell>
                <mxCell id="15" value="lint 与工具lint属性" style="rounded=0;whiteSpace=wrap;html=1;align=center;fontSize=13;" parent="1" vertex="1">
                    <mxGeometry x="530" y="323" width="230" height="30" as="geometry"/>
                </mxCell>
                <mxCell id="16" value="标准库预导入" style="rounded=0;whiteSpace=wrap;html=1;align=center;fontSize=13;" parent="1" vertex="1">
                    <mxGeometry x="530" y="233" width="230" height="30" as="geometry"/>
                </mxCell>
                <mxCell id="17" value="根模块中的标准库crate" style="rounded=0;whiteSpace=wrap;html=1;align=center;fontSize=13;" parent="1" vertex="1">
                    <mxGeometry x="530" y="263" width="230" height="30" as="geometry"/>
                </mxCell>
                <mxCell id="19" value="" style="edgeStyle=none;html=1;fontSize=13;" parent="1" source="18" target="17" edge="1">
                    <mxGeometry relative="1" as="geometry"/>
                </mxCell>
                <mxCell id="18" value="编译器链接的外部库" style="rounded=0;whiteSpace=wrap;html=1;align=center;fontSize=13;" parent="1" vertex="1">
                    <mxGeometry x="530" y="293" width="230" height="30" as="geometry"/>
                </mxCell>
                <mxCell id="20" value="继承宏、'static存活期" style="rounded=0;whiteSpace=wrap;html=1;align=center;fontSize=13;" parent="1" vertex="1">
                    <mxGeometry x="530" y="353" width="230" height="30" as="geometry"/>
                </mxCell>
                <mxCell id="21" value="类型空间 TypeNS" style="rounded=0;whiteSpace=wrap;html=1;align=center;fontSize=13;fillColor=#f5f5f5;fontColor=#333333;strokeColor=#666666;" parent="1" vertex="1">
                    <mxGeometry x="560" y="399" width="120" height="30" as="geometry"/>
                </mxCell>
                <mxCell id="22" value="值空间 ValueNS" style="rounded=0;whiteSpace=wrap;html=1;align=center;fontSize=13;" parent="1" vertex="1">
                    <mxGeometry x="560" y="429" width="120" height="30" as="geometry"/>
                </mxCell>
                <mxCell id="23" value="宏空间 MacroNS" style="rounded=0;whiteSpace=wrap;html=1;align=center;fontSize=13;" parent="1" vertex="1">
                    <mxGeometry x="560" y="459" width="120" height="30" as="geometry"/>
                </mxCell>
                <mxCell id="24" value="存活期空间" style="rounded=0;whiteSpace=wrap;html=1;align=center;fontSize=13;" parent="1" vertex="1">
                    <mxGeometry x="560" y="489" width="120" height="30" as="geometry"/>
                </mxCell>
                <mxCell id="25" value="&lt;b style=&quot;font-size: 13px;&quot;&gt;名字解析&lt;br style=&quot;font-size: 13px;&quot;&gt;&lt;/b&gt;&lt;font style=&quot;&quot; color=&quot;#ff0000&quot;&gt;编译时&lt;/font&gt;将名字绑定到实体声明&lt;br style=&quot;font-size: 13px;&quot;&gt;[ 路径、标识符、标签]" style="endArrow=classic;html=1;entryX=1;entryY=1;entryDx=0;entryDy=0;fontSize=13;exitX=1;exitY=0;exitDx=0;exitDy=0;align=left;" parent="1" source="37" target="3" edge="1">
                    <mxGeometry x="0.4444" y="27" width="50" height="50" relative="1" as="geometry">
                        <mxPoint x="327" y="498" as="sourcePoint"/>
                        <mxPoint x="287" y="303" as="targetPoint"/>
                        <mxPoint as="offset"/>
                    </mxGeometry>
                </mxCell>
                <mxCell id="29" value="绑定名字" style="endArrow=classic;html=1;exitX=0;exitY=1;exitDx=0;exitDy=0;entryX=0;entryY=0;entryDx=0;entryDy=0;fontSize=13;" parent="1" source="3" target="4" edge="1">
                    <mxGeometry x="-0.4286" width="50" height="50" relative="1" as="geometry">
                        <mxPoint x="267" y="238" as="sourcePoint"/>
                        <mxPoint x="177" y="388" as="targetPoint"/>
                        <mxPoint as="offset"/>
                    </mxGeometry>
                </mxCell>
                <mxCell id="33" value="" style="endArrow=none;dashed=1;html=1;entryX=0;entryY=0.5;entryDx=0;entryDy=0;exitX=1;exitY=0.5;exitDx=0;exitDy=0;fontSize=13;" parent="1" source="8" target="12" edge="1">
                    <mxGeometry width="50" height="50" relative="1" as="geometry">
                        <mxPoint x="346" y="343" as="sourcePoint"/>
                        <mxPoint x="506" y="133" as="targetPoint"/>
                    </mxGeometry>
                </mxCell>
                <mxCell id="34" value="" style="endArrow=none;dashed=1;html=1;entryX=0;entryY=0;entryDx=0;entryDy=0;exitX=1;exitY=1;exitDx=0;exitDy=0;fontSize=13;" parent="1" source="9" target="18" edge="1">
                    <mxGeometry width="50" height="50" relative="1" as="geometry">
                        <mxPoint x="357" y="343" as="sourcePoint"/>
                        <mxPoint x="507.0000000000007" y="293" as="targetPoint"/>
                    </mxGeometry>
                </mxCell>
                <mxCell id="35" value="逻辑分组" style="endArrow=none;dashed=1;html=1;entryX=0;entryY=0.5;entryDx=0;entryDy=0;exitX=1;exitY=0.5;exitDx=0;exitDy=0;fontSize=13;" parent="1" source="4" target="6" edge="1">
                    <mxGeometry width="50" height="50" relative="1" as="geometry">
                        <mxPoint x="360" y="444" as="sourcePoint"/>
                        <mxPoint x="420" y="444" as="targetPoint"/>
                        <Array as="points">
                            <mxPoint x="370" y="489"/>
                        </Array>
                        <mxPoint as="offset"/>
                    </mxGeometry>
                </mxCell>
                <mxCell id="36" value="标签空间: loop,block" style="rounded=0;whiteSpace=wrap;html=1;align=center;fontSize=13;" parent="1" vertex="1">
                    <mxGeometry x="560" y="519" width="120" height="30" as="geometry"/>
                </mxCell>
                <mxCell id="37" value="代码文本域&lt;br&gt;&lt;br&gt;" style="rounded=0;whiteSpace=wrap;html=1;align=center;fillColor=#647687;strokeColor=#314354;fontColor=#ffffff;fontSize=13;" parent="1" vertex="1">
                    <mxGeometry x="177" y="639" width="120" height="120" as="geometry"/>
                </mxCell>
                <mxCell id="38" value="引入域中&lt;br style=&quot;font-size: 13px;&quot;&gt;use" style="endArrow=classic;html=1;exitX=0;exitY=1;exitDx=0;exitDy=0;entryX=0;entryY=0;entryDx=0;entryDy=0;fontSize=13;fontColor=#009999;" parent="1" source="4" target="37" edge="1">
                    <mxGeometry width="50" height="50" relative="1" as="geometry">
                        <mxPoint x="307" y="524" as="sourcePoint"/>
                        <mxPoint x="357" y="474" as="targetPoint"/>
                        <mxPoint as="offset"/>
                    </mxGeometry>
                </mxCell>
                <mxCell id="41" value="&lt;b style=&quot;font-size: 13px;&quot;&gt;名字预导入&lt;/b&gt;" style="rounded=0;whiteSpace=wrap;html=1;align=center;fillColor=#6d8764;fontColor=#ffffff;strokeColor=#3A5431;fontSize=13;" parent="1" vertex="1">
                    <mxGeometry x="177" y="905" width="120" height="60" as="geometry"/>
                </mxCell>
                <mxCell id="42" value="分层代码域" style="rounded=0;whiteSpace=wrap;html=1;align=center;fontSize=13;" parent="1" vertex="1">
                    <mxGeometry x="377" y="649" width="120" height="40" as="geometry"/>
                </mxCell>
                <mxCell id="43" value="" style="endArrow=none;dashed=1;html=1;entryX=0.5;entryY=1;entryDx=0;entryDy=0;fontSize=13;" parent="1" source="42" target="6" edge="1">
                    <mxGeometry width="50" height="50" relative="1" as="geometry">
                        <mxPoint x="377" y="427" as="sourcePoint"/>
                        <mxPoint x="427" y="377" as="targetPoint"/>
                    </mxGeometry>
                </mxCell>
                <mxCell id="44" value="代码组织" style="endArrow=none;dashed=1;html=1;entryX=0;entryY=0.5;entryDx=0;entryDy=0;fontSize=13;exitX=1;exitY=0.25;exitDx=0;exitDy=0;" parent="1" source="37" target="42" edge="1">
                    <mxGeometry width="50" height="50" relative="1" as="geometry">
                        <mxPoint x="330" y="699" as="sourcePoint"/>
                        <mxPoint x="450" y="349" as="targetPoint"/>
                        <Array as="points">
                            <mxPoint x="340" y="669"/>
                        </Array>
                        <mxPoint as="offset"/>
                    </mxGeometry>
                </mxCell>
                <mxCell id="45" value="五个" style="endArrow=none;dashed=1;html=1;exitX=1;exitY=0.5;exitDx=0;exitDy=0;fontSize=13;entryX=0;entryY=0;entryDx=0;entryDy=0;" parent="1" source="6" target="24" edge="1">
                    <mxGeometry width="50" height="50" relative="1" as="geometry">
                        <mxPoint x="400" y="427" as="sourcePoint"/>
                        <mxPoint x="450" y="377" as="targetPoint"/>
                    </mxGeometry>
                </mxCell>
                <mxCell id="47" value="每个名字空间内部的名字按代码域分层" style="text;html=1;align=center;verticalAlign=middle;resizable=0;points=[];autosize=1;strokeColor=none;fillColor=none;fontSize=13;" parent="1" vertex="1">
                    <mxGeometry x="350" y="577" width="240" height="30" as="geometry"/>
                </mxCell>
                <mxCell id="48" value="解析时自动引到所有代码域&lt;br style=&quot;font-size: 13px;&quot;&gt;但是不成为代码域一部分" style="endArrow=classic;html=1;exitX=0.5;exitY=0;exitDx=0;exitDy=0;entryX=0.5;entryY=1;entryDx=0;entryDy=0;fontSize=13;" parent="1" source="41" target="37" edge="1">
                    <mxGeometry x="-0.3855" width="50" height="50" relative="1" as="geometry">
                        <mxPoint x="337" y="438" as="sourcePoint"/>
                        <mxPoint x="387" y="388" as="targetPoint"/>
                        <mxPoint as="offset"/>
                    </mxGeometry>
                </mxCell>
                <mxCell id="49" value="" style="endArrow=none;dashed=1;html=1;entryX=0;entryY=0;entryDx=0;entryDy=0;exitX=1;exitY=0.5;exitDx=0;exitDy=0;fontSize=13;" parent="1" source="3" target="9" edge="1">
                    <mxGeometry width="50" height="50" relative="1" as="geometry">
                        <mxPoint x="330" y="263" as="sourcePoint"/>
                        <mxPoint x="480" y="463" as="targetPoint"/>
                    </mxGeometry>
                </mxCell>
                <mxCell id="50" value="&lt;font style=&quot;font-size: 12px;&quot;&gt;用 &quot;&lt;b style=&quot;font-size: 12px;&quot;&gt;路径&quot; 调用&lt;/b&gt;名字&lt;/font&gt;" style="rounded=0;whiteSpace=wrap;html=1;align=center;fontSize=12;fillColor=#FFFFFF;strokeColor=#314354;fontColor=#009999;" parent="1" vertex="1">
                    <mxGeometry x="177" y="714" width="120" height="30" as="geometry"/>
                </mxCell>
                <mxCell id="52" value="pub&amp;nbsp;" style="rounded=0;whiteSpace=wrap;html=1;align=center;fontSize=13;" parent="1" vertex="1">
                    <mxGeometry x="630" y="684" width="80" height="30" as="geometry"/>
                </mxCell>
                <mxCell id="53" value="pub (crate)" style="rounded=0;whiteSpace=wrap;html=1;align=center;fontSize=13;" parent="1" vertex="1">
                    <mxGeometry x="630" y="714" width="80" height="30" as="geometry"/>
                </mxCell>
                <mxCell id="54" value="pub (self)&amp;nbsp;" style="rounded=0;whiteSpace=wrap;html=1;align=center;fillColor=#ffe6cc;strokeColor=#000000;fontSize=13;" parent="1" vertex="1">
                    <mxGeometry x="630" y="654" width="80" height="30" as="geometry"/>
                </mxCell>
                <mxCell id="55" value="pub (super)" style="rounded=0;whiteSpace=wrap;html=1;align=center;fontSize=13;" parent="1" vertex="1">
                    <mxGeometry x="630" y="744" width="80" height="30" as="geometry"/>
                </mxCell>
                <mxCell id="56" value="pub (in path)" style="rounded=0;whiteSpace=wrap;html=1;align=center;fontSize=13;" parent="1" vertex="1">
                    <mxGeometry x="630" y="774" width="80" height="30" as="geometry"/>
                </mxCell>
                <mxCell id="57" value="相对于mod" style="endArrow=none;dashed=1;html=1;exitX=1;exitY=0.5;exitDx=0;exitDy=0;entryX=0;entryY=0.5;entryDx=0;entryDy=0;fontSize=13;" parent="1" source="10" target="53" edge="1">
                    <mxGeometry width="50" height="50" relative="1" as="geometry">
                        <mxPoint x="430" y="508" as="sourcePoint"/>
                        <mxPoint x="480" y="458" as="targetPoint"/>
                    </mxGeometry>
                </mxCell>
                <mxCell id="59" value="" style="endArrow=none;dashed=1;html=1;entryX=0;entryY=0.5;entryDx=0;entryDy=0;exitX=1;exitY=0.5;exitDx=0;exitDy=0;fontSize=13;" parent="1" source="3" target="8" edge="1">
                    <mxGeometry width="50" height="50" relative="1" as="geometry">
                        <mxPoint x="330" y="203" as="sourcePoint"/>
                        <mxPoint x="480" y="523" as="targetPoint"/>
                    </mxGeometry>
                </mxCell>
                <mxCell id="66" value="引入限制" style="endArrow=classic;html=1;exitX=1;exitY=0.75;exitDx=0;exitDy=0;entryX=0;entryY=0.5;entryDx=0;entryDy=0;fontSize=13;" parent="1" source="37" target="10" edge="1">
                    <mxGeometry width="50" height="50" relative="1" as="geometry">
                        <mxPoint x="400" y="539" as="sourcePoint"/>
                        <mxPoint x="450" y="489" as="targetPoint"/>
                    </mxGeometry>
                </mxCell>
                <mxCell id="68" value="标准库预导入" style="rounded=0;whiteSpace=wrap;html=1;align=center;fontSize=13;" parent="1" vertex="1">
                    <mxGeometry x="380" y="848.5" width="120" height="26.5" as="geometry"/>
                </mxCell>
                <mxCell id="69" value="外部库预导入" style="rounded=0;whiteSpace=wrap;html=1;align=center;fontSize=13;" parent="1" vertex="1">
                    <mxGeometry x="380" y="818.5" width="120" height="30" as="geometry"/>
                </mxCell>
                <mxCell id="70" value="语言预导入" style="rounded=0;whiteSpace=wrap;html=1;align=center;fontSize=13;" parent="1" vertex="1">
                    <mxGeometry x="380" y="875" width="120" height="30" as="geometry"/>
                </mxCell>
                <mxCell id="72" value="工具预导入" style="rounded=0;whiteSpace=wrap;html=1;align=center;fontSize=13;" parent="1" vertex="1">
                    <mxGeometry x="380" y="905" width="120" height="26.5" as="geometry"/>
                </mxCell>
                <mxCell id="73" value="" style="endArrow=none;dashed=1;html=1;entryX=1;entryY=0.5;entryDx=0;entryDy=0;exitX=0;exitY=0.5;exitDx=0;exitDy=0;fontSize=13;" parent="1" source="70" target="41" edge="1">
                    <mxGeometry width="50" height="50" relative="1" as="geometry">
                        <mxPoint x="430" y="686" as="sourcePoint"/>
                        <mxPoint x="480" y="636" as="targetPoint"/>
                    </mxGeometry>
                </mxCell>
                <mxCell id="74" value="默认" style="rounded=0;whiteSpace=wrap;html=1;align=center;fontSize=13;fillColor=#ffe6cc;strokeColor=#000000;" parent="1" vertex="1">
                    <mxGeometry x="710" y="654" width="50" height="30" as="geometry"/>
                </mxCell>
                <mxCell id="75" value="公开" style="rounded=0;whiteSpace=wrap;html=1;align=center;fontSize=13;" parent="1" vertex="1">
                    <mxGeometry x="710" y="684" width="50" height="30" as="geometry"/>
                </mxCell>
                <mxCell id="76" value="包内" style="rounded=0;whiteSpace=wrap;html=1;align=center;fontSize=13;" parent="1" vertex="1">
                    <mxGeometry x="710" y="714" width="50" height="30" as="geometry"/>
                </mxCell>
                <mxCell id="77" value="父级" style="rounded=0;whiteSpace=wrap;html=1;align=center;fontSize=13;" parent="1" vertex="1">
                    <mxGeometry x="710" y="744" width="50" height="30" as="geometry"/>
                </mxCell>
                <mxCell id="78" value="路径内" style="rounded=0;whiteSpace=wrap;html=1;align=center;fontSize=13;" parent="1" vertex="1">
                    <mxGeometry x="710" y="774" width="50" height="30" as="geometry"/>
                </mxCell>
                <mxCell id="80" value="重导出&lt;br style=&quot;font-size: 13px;&quot;&gt;pub use" style="endArrow=classic;html=1;exitX=0.5;exitY=1;exitDx=0;exitDy=0;entryX=0.5;entryY=0;entryDx=0;entryDy=0;fontSize=13;" parent="1" source="4" target="37" edge="1">
                    <mxGeometry width="50" height="50" relative="1" as="geometry">
                        <mxPoint x="397" y="674" as="sourcePoint"/>
                        <mxPoint x="447" y="624" as="targetPoint"/>
                    </mxGeometry>
                </mxCell>
                <mxCell id="84" value="名字路径" style="rounded=0;whiteSpace=wrap;html=1;strokeColor=#3A5431;fontSize=12;fontColor=#ffffff;fillColor=#6d8764;fontStyle=1" parent="1" vertex="1">
                    <mxGeometry x="540" y="649" width="70" height="40" as="geometry"/>
                </mxCell>
                <mxCell id="85" value="名字的域层次串联&lt;br&gt;crate::m1:::m2::name" style="rounded=0;whiteSpace=wrap;html=1;strokeColor=#000000;fontSize=12;fontColor=#000000;" parent="1" vertex="1">
                    <mxGeometry x="630" y="572" width="130" height="40" as="geometry"/>
                </mxCell>
                <mxCell id="88" value="" style="endArrow=none;dashed=1;html=1;fontSize=12;fontColor=#000000;entryX=0;entryY=0.5;entryDx=0;entryDy=0;exitX=1;exitY=0.5;exitDx=0;exitDy=0;" parent="1" source="42" target="84" edge="1">
                    <mxGeometry width="50" height="50" relative="1" as="geometry">
                        <mxPoint x="410" y="769" as="sourcePoint"/>
                        <mxPoint x="460" y="719" as="targetPoint"/>
                    </mxGeometry>
                </mxCell>
                <mxCell id="89" value="" style="endArrow=none;dashed=1;html=1;fontSize=12;fontColor=#000000;entryX=1;entryY=0.5;entryDx=0;entryDy=0;exitX=0;exitY=0.5;exitDx=0;exitDy=0;" parent="1" source="85" target="84" edge="1">
                    <mxGeometry width="50" height="50" relative="1" as="geometry">
                        <mxPoint x="410" y="742" as="sourcePoint"/>
                        <mxPoint x="460" y="692" as="targetPoint"/>
                    </mxGeometry>
                </mxCell>
                <mxCell id="90" value="属性宏" style="rounded=0;whiteSpace=wrap;html=1;align=center;fontSize=13;" parent="1" vertex="1">
                    <mxGeometry x="700" y="429" width="60" height="30" as="geometry"/>
                </mxCell>
                <mxCell id="91" value="函数宏" style="rounded=0;whiteSpace=wrap;html=1;align=center;fontSize=13;" parent="1" vertex="1">
                    <mxGeometry x="700" y="489" width="60" height="30" as="geometry"/>
                </mxCell>
                <mxCell id="92" value="" style="endArrow=none;dashed=1;html=1;fontSize=12;fontColor=#000000;entryX=0;entryY=0.5;entryDx=0;entryDy=0;exitX=1;exitY=0.5;exitDx=0;exitDy=0;" parent="1" source="23" target="90" edge="1">
                    <mxGeometry width="50" height="50" relative="1" as="geometry">
                        <mxPoint x="410" y="584" as="sourcePoint"/>
                        <mxPoint x="460" y="534" as="targetPoint"/>
                    </mxGeometry>
                </mxCell>
                <mxCell id="93" value="" style="endArrow=none;dashed=1;html=1;fontSize=12;fontColor=#000000;entryX=1;entryY=0.5;entryDx=0;entryDy=0;exitX=0;exitY=0.5;exitDx=0;exitDy=0;" parent="1" source="91" target="23" edge="1">
                    <mxGeometry width="50" height="50" relative="1" as="geometry">
                        <mxPoint x="410" y="584" as="sourcePoint"/>
                        <mxPoint x="460" y="534" as="targetPoint"/>
                    </mxGeometry>
                </mxCell>
                <mxCell id="95" value="子空间" style="text;html=1;align=center;verticalAlign=middle;resizable=0;points=[];autosize=1;strokeColor=none;fillColor=none;fontSize=12;fontColor=#000000;" parent="1" vertex="1">
                    <mxGeometry x="690" y="459" width="60" height="30" as="geometry"/>
                </mxCell>
                <mxCell id="98" value="指向" style="endArrow=classic;html=1;fontSize=12;fontColor=#000000;exitX=0.5;exitY=0;exitDx=0;exitDy=0;entryX=0.5;entryY=1;entryDx=0;entryDy=0;" parent="1" source="4" target="3" edge="1">
                    <mxGeometry x="-0.3469" width="50" height="50" relative="1" as="geometry">
                        <mxPoint x="377" y="508" as="sourcePoint"/>
                        <mxPoint x="427" y="458" as="targetPoint"/>
                        <mxPoint as="offset"/>
                    </mxGeometry>
                </mxCell>
                <mxCell id="99" value="use ::&lt;font color=&quot;#ff0000&quot;&gt;{ x }&lt;/font&gt;" style="rounded=0;whiteSpace=wrap;html=1;strokeColor=#666666;fontSize=12;fontColor=#333333;fillColor=#f5f5f5;" parent="1" vertex="1">
                    <mxGeometry x="377" y="399" width="120" height="30" as="geometry"/>
                </mxCell>
                <mxCell id="100" value="tips" style="endArrow=classic;html=1;fontSize=12;fontColor=#000000;entryX=1;entryY=0.5;entryDx=0;entryDy=0;dashed=1;" parent="1" target="99" edge="1">
                    <mxGeometry width="50" height="50" relative="1" as="geometry">
                        <mxPoint x="570" y="414" as="sourcePoint"/>
                        <mxPoint x="450" y="444" as="targetPoint"/>
                    </mxGeometry>
                </mxCell>
                <mxCell id="103" value="no_std" style="rounded=0;whiteSpace=wrap;html=1;align=center;fontSize=13;" parent="1" vertex="1">
                    <mxGeometry x="380" y="1014" width="120" height="29" as="geometry"/>
                </mxCell>
                <mxCell id="104" value="" style="endArrow=none;dashed=1;html=1;fontSize=12;fontColor=#FF0000;entryX=1;entryY=0.5;entryDx=0;entryDy=0;exitX=0;exitY=0.5;exitDx=0;exitDy=0;" parent="1" source="103" target="41" edge="1">
                    <mxGeometry width="50" height="50" relative="1" as="geometry">
                        <mxPoint x="400" y="666" as="sourcePoint"/>
                        <mxPoint x="450" y="616" as="targetPoint"/>
                    </mxGeometry>
                </mxCell>
                <mxCell id="105" value="“core”代替“std”导入 crate root" style="rounded=0;whiteSpace=wrap;html=1;align=left;fontSize=13;spacingLeft=3;" parent="1" vertex="1">
                    <mxGeometry x="530" y="970" width="230" height="29" as="geometry"/>
                </mxCell>
                <mxCell id="106" value="外部预导入移除&quot;std&quot;只留&quot;core&quot;" style="rounded=0;whiteSpace=wrap;html=1;align=left;fontSize=13;spacingLeft=3;" parent="1" vertex="1">
                    <mxGeometry x="530" y="1057" width="230" height="29" as="geometry"/>
                </mxCell>
                <mxCell id="107" value="core::** 代替std::**加入标准库预导入" style="rounded=0;whiteSpace=wrap;html=1;align=left;fontSize=13;spacingLeft=3;" parent="1" vertex="1">
                    <mxGeometry x="530" y="1028" width="230" height="29" as="geometry"/>
                </mxCell>
                <mxCell id="108" value="" style="endArrow=none;dashed=1;html=1;fontSize=12;fontColor=#FF0000;entryX=1;entryY=0.5;entryDx=0;entryDy=0;exitX=0;exitY=0;exitDx=0;exitDy=0;" parent="1" source="107" target="103" edge="1">
                    <mxGeometry width="50" height="50" relative="1" as="geometry">
                        <mxPoint x="400" y="770" as="sourcePoint"/>
                        <mxPoint x="450" y="720" as="targetPoint"/>
                    </mxGeometry>
                </mxCell>
                <mxCell id="109" value="“core”宏代替“std”导入 macro_use" style="rounded=0;whiteSpace=wrap;html=1;align=left;fontSize=13;spacingLeft=3;" parent="1" vertex="1">
                    <mxGeometry x="530" y="999" width="230" height="29" as="geometry"/>
                </mxCell>
                <mxCell id="110" value="内置类型、内置属性" style="rounded=0;whiteSpace=wrap;html=1;strokeColor=#000000;fontSize=12;fontColor=#FF0000;align=left;spacingLeft=5;" parent="1" vertex="1">
                    <mxGeometry x="500" y="875" width="260" height="30" as="geometry"/>
                </mxCell>
                <mxCell id="111" value="std::prelude::**" style="rounded=0;whiteSpace=wrap;html=1;strokeColor=#000000;fontSize=12;fontColor=#FF0000;align=left;spacingLeft=5;" parent="1" vertex="1">
                    <mxGeometry x="500" y="848.5" width="260" height="26.5" as="geometry"/>
                </mxCell>
                <mxCell id="114" value="rustftm,clippy属性" style="rounded=0;whiteSpace=wrap;html=1;strokeColor=#000000;fontSize=12;fontColor=#FF0000;align=left;spacingLeft=5;" parent="1" vertex="1">
                    <mxGeometry x="500" y="905" width="260" height="26.5" as="geometry"/>
                </mxCell>
                <mxCell id="115" value="根路径extern crate xxx 或 --extern xx" style="rounded=0;whiteSpace=wrap;html=1;strokeColor=#000000;fontSize=12;fontColor=#FF0000;spacingLeft=5;" parent="1" vertex="1">
                    <mxGeometry x="500" y="818.5" width="260" height="30" as="geometry"/>
                </mxCell>
                <mxCell id="116" value="#[macro_use] extern crate xxx;" style="rounded=0;whiteSpace=wrap;html=1;strokeColor=#000000;fontSize=12;fontColor=#FF0000;align=left;spacingLeft=5;" parent="1" vertex="1">
                    <mxGeometry x="500" y="931.5" width="260" height="26.5" as="geometry"/>
                </mxCell>
                <mxCell id="117" value="macro_use" style="rounded=0;whiteSpace=wrap;html=1;align=center;fontSize=13;" parent="1" vertex="1">
                    <mxGeometry x="380" y="931.5" width="120" height="26.5" as="geometry"/>
                </mxCell>
                <mxCell id="120" value="&lt;b&gt;外部预导入说明&lt;br&gt;&lt;/b&gt;1. 2018后use可检索外部预导入&lt;br&gt;不需要对依赖包 exten crate xxx了&lt;br&gt;2.rustc下的包不会加入--extern&lt;br&gt;alloc 和 test 使用时需要 extern crate 导入crate root" style="text;html=1;align=left;verticalAlign=middle;resizable=0;points=[];autosize=1;strokeColor=none;fillColor=none;fontSize=12;fontColor=#000000;fontStyle=0" parent="1" vertex="1">
                    <mxGeometry x="160" y="991" width="289" height="84" as="geometry"/>
                </mxCell>
                <mxCell id="122" value="" style="endArrow=none;dashed=1;html=1;dashPattern=1 3;strokeWidth=2;fontSize=12;fontColor=#000000;strokeColor=#CCCCCC;" parent="1" edge="1">
                    <mxGeometry width="50" height="50" relative="1" as="geometry">
                        <mxPoint x="110" y="390" as="sourcePoint"/>
                        <mxPoint x="790" y="390" as="targetPoint"/>
                    </mxGeometry>
                </mxCell>
                <mxCell id="123" value="" style="endArrow=none;dashed=1;html=1;dashPattern=1 3;strokeWidth=2;fontSize=12;fontColor=#000000;strokeColor=#CCCCCC;" parent="1" edge="1">
                    <mxGeometry width="50" height="50" relative="1" as="geometry">
                        <mxPoint x="110" y="808" as="sourcePoint"/>
                        <mxPoint x="785" y="810" as="targetPoint"/>
                    </mxGeometry>
                </mxCell>
                <mxCell id="124" value="①&lt;br style=&quot;font-size: 14px;&quot;&gt;名&lt;br style=&quot;font-size: 14px;&quot;&gt;字&lt;br style=&quot;font-size: 14px;&quot;&gt;来&lt;br style=&quot;font-size: 14px;&quot;&gt;源" style="text;html=1;strokeColor=none;fillColor=none;align=center;verticalAlign=middle;whiteSpace=wrap;rounded=0;fontSize=14;fontColor=#660033;fontStyle=1" parent="1" vertex="1">
                    <mxGeometry x="110" y="158" width="60" height="30" as="geometry"/>
                </mxCell>
                <mxCell id="125" value="②&lt;br style=&quot;font-size: 14px;&quot;&gt;名&lt;br style=&quot;font-size: 14px;&quot;&gt;字&lt;br style=&quot;font-size: 14px;&quot;&gt;分&lt;br style=&quot;font-size: 14px;&quot;&gt;组" style="text;html=1;strokeColor=none;fillColor=none;align=center;verticalAlign=middle;whiteSpace=wrap;rounded=0;fontSize=14;fontColor=#660033;fontStyle=1" parent="1" vertex="1">
                    <mxGeometry x="100" y="474" width="60" height="30" as="geometry"/>
                </mxCell>
                <mxCell id="127" value="④&lt;br&gt;自&lt;br style=&quot;font-size: 14px;&quot;&gt;动&lt;br style=&quot;font-size: 14px;&quot;&gt;引&lt;br style=&quot;font-size: 14px;&quot;&gt;入&lt;br style=&quot;font-size: 14px;&quot;&gt;的&lt;br style=&quot;font-size: 14px;&quot;&gt;名&lt;br style=&quot;font-size: 14px;&quot;&gt;字" style="text;html=1;strokeColor=none;fillColor=none;align=center;verticalAlign=middle;whiteSpace=wrap;rounded=0;fontSize=14;fontColor=#660033;fontStyle=1" parent="1" vertex="1">
                    <mxGeometry x="100" y="875" width="60" height="30" as="geometry"/>
                </mxCell>
                <mxCell id="128" value="" style="endArrow=none;dashed=1;html=1;dashPattern=1 3;strokeWidth=2;fontSize=12;fontColor=#000000;strokeColor=#CCCCCC;" parent="1" edge="1">
                    <mxGeometry width="50" height="50" relative="1" as="geometry">
                        <mxPoint x="110" y="560" as="sourcePoint"/>
                        <mxPoint x="785" y="562" as="targetPoint"/>
                    </mxGeometry>
                </mxCell>
                <mxCell id="129" value="③&lt;br style=&quot;font-size: 14px;&quot;&gt;代&lt;br style=&quot;font-size: 14px;&quot;&gt;码&lt;br style=&quot;font-size: 14px;&quot;&gt;使&lt;br style=&quot;font-size: 14px;&quot;&gt;用&lt;br style=&quot;font-size: 14px;&quot;&gt;名&lt;br style=&quot;font-size: 14px;&quot;&gt;字" style="text;html=1;strokeColor=none;fillColor=none;align=center;verticalAlign=middle;whiteSpace=wrap;rounded=0;fontSize=14;fontColor=#660033;fontStyle=1" parent="1" vertex="1">
                    <mxGeometry x="100" y="642" width="60" height="30" as="geometry"/>
                </mxCell>
                <mxCell id="130" value="Rust名字与使用导图" style="text;html=1;align=center;verticalAlign=middle;resizable=0;points=[];autosize=1;strokeColor=none;fillColor=none;fontSize=15;fontColor=#000000;fontStyle=1" parent="1" vertex="1">
                    <mxGeometry x="130" y="63" width="160" height="30" as="geometry"/>
                </mxCell>
                <mxCell id="131" value="" style="endArrow=none;dashed=1;html=1;strokeColor=#CCCCCC;fontSize=14;fontColor=#009999;exitX=-0.006;exitY=1.064;exitDx=0;exitDy=0;exitPerimeter=0;entryX=0.987;entryY=1.033;entryDx=0;entryDy=0;entryPerimeter=0;" parent="1" edge="1">
                    <mxGeometry width="50" height="50" relative="1" as="geometry">
                        <mxPoint x="140.03999999999996" y="89.92000000000007" as="sourcePoint"/>
                        <mxPoint x="298.9200000000001" y="88.99000000000001" as="targetPoint"/>
                    </mxGeometry>
                </mxCell>
                <mxCell id="132" value="根路径extern crate xxx 或 --extern xx" style="rounded=0;whiteSpace=wrap;html=1;strokeColor=#000000;fontSize=12;fontColor=#FF0000;align=left;spacingLeft=5;" vertex="1" parent="1">
                    <mxGeometry x="500" y="818.5" width="260" height="30" as="geometry"/>
                </mxCell>
            </root>
        </mxGraphModel>
    </diagram>
</mxfile>